<?xml version="1.0" encoding="utf-8"?>
<!-- Generator: Adobe Illustrator 16.0.3, SVG Export Plug-In . SVG Version: 6.00 Build 0)  -->
<!DOCTYPE svg PUBLIC "-//W3C//DTD SVG 1.1//EN" "http://www.w3.org/Graphics/SVG/1.1/DTD/svg11.dtd">
<svg version="1.1" id="Layer_1" xmlns="http://www.w3.org/2000/svg" xmlns:xlink="http://www.w3.org/1999/xlink" x="0px" y="0px"
	 width="72px" height="72px" viewBox="0 0 72 72" enable-background="new 0 0 72 72" xml:space="preserve">
<path fill="#48C0EF" stroke="#000000" stroke-miterlimit="10" d="M42.18,19.66l1.84,6.35L54.01,36l-5.979,5.98l-5.73-5.32
	L39.84,16.1c0,0-1.21-2.46-3.84-2.46s-3.61,2.21-3.61,2.21l-2.46,21.13l-5.52,5.53l-6.43-6.43l10.495-10.015l1.511-6.355
	L13.15,35.76L35.92,58.53L58.48,35.96L42.18,19.66z M40.01,50.09c0,0-0.58,2.21-4.02,2.21c-3.44,0-4.01-2.21-4.01-2.21v-7.05
	c0,0,0.42-2.21,4.02-2.21c3.6,0,4.01,2.21,4.01,2.21V50.09z"/>
</svg>
