<?xml version="1.0" encoding="utf-8"?>
<!-- Generator: Adobe Illustrator 16.0.3, SVG Export Plug-In . SVG Version: 6.00 Build 0)  -->
<!DOCTYPE svg PUBLIC "-//W3C//DTD SVG 1.1//EN" "http://www.w3.org/Graphics/SVG/1.1/DTD/svg11.dtd">
<svg version="1.1" id="Layer_1" xmlns="http://www.w3.org/2000/svg" xmlns:xlink="http://www.w3.org/1999/xlink" x="0px" y="0px"
	 width="72px" height="72px" viewBox="-24 -24 72 72" enable-background="new -24 -24 72 72" xml:space="preserve">
<path fill="#FFFFFF" d="M12-18.458c-11.788,0-21.321,9.533-21.321,21.321C-9.321,18.854,12,42.458,12,42.458
	S33.32,18.854,33.32,2.863C33.32-8.925,23.788-18.458,12-18.458z M12,10.477c-4.203,0-7.614-3.412-7.614-7.614
	c0-4.203,3.412-7.615,7.614-7.615c4.203,0,7.614,3.412,7.614,7.615C19.614,7.065,16.203,10.477,12,10.477z"/>
<path fill="none" d="M0,0h24v24H0V0z"/>
</svg>
