<?xml version="1.0" encoding="utf-8"?>
<!-- Generator: Adobe Illustrator 16.0.3, SVG Export Plug-In . SVG Version: 6.00 Build 0)  -->
<!DOCTYPE svg PUBLIC "-//W3C//DTD SVG 1.1//EN" "http://www.w3.org/Graphics/SVG/1.1/DTD/svg11.dtd">
<svg version="1.1" id="Layer_1" xmlns="http://www.w3.org/2000/svg" xmlns:xlink="http://www.w3.org/1999/xlink" x="0px" y="0px"
	 width="72px" height="72px" viewBox="0 0 72 72" enable-background="new 0 0 72 72" xml:space="preserve">
<path fill="#48C0EF" stroke="#000000" stroke-miterlimit="10" d="M51.93,37.519l-1.397,3.684l3.187,3.527L39.782,58.228V42.492
	l4.572-0.401l3.686-8.257c0,0,1.604,0,2.59,0c3.794,0,6.591-7.138,6.591-7.138H46.19L37.24,7.737c0,0,1.776-1.045,1.776-2.566
	c0-1.52-1.509-3.016-3.028-3.016c-1.508,0-2.98,1.459-2.98,2.992c0,1.52,1.667,2.59,1.667,2.59L25.81,26.695H14.755
	c0,0,2.311,7.138,5.497,7.138c1.302,0,3.393,0,3.393,0l3.977,8.367l4.682,0.292v15.735l-13.62-13.619l3.04-3.04l-1.568-4.05
	l-7.26,7.211l23.094,23.105l23.117-23.105L51.93,37.519z M29.166,26.695l2.676-5.63h8.269l2.724,5.63H29.166z"/>
</svg>
